<svg viewBox="0 0 430 550" fill="none" xmlns="http://www.w3.org/2000/svg">
    <path fill-rule="evenodd" clip-rule="evenodd"
          d="M371.808 0.718018H59.0669V398.807H138.782L163.64 181.5L112.353 202.42L130.337 95.12L270.211 37.0834L309.913 385.164L232.593 398.807H371.808V0.718018Z"
          fill="url(#paint0_linear_28_403)"/>
    <path
            d="M0.746677 421.217L57.9822 420.842L57.6073 447.335L43.9858 446.96L44.3607 506.195L18.4922 506.945L19.6169 448.335L2.12133 448.71L0.746677 421.217ZM61.866 420.092H86.6098L85.2351 461.956H99.8564L100.481 421.842L124.225 422.216L123.85 505.945H100.231L99.4815 481.826H84.8602V505.945H61.4911L61.866 420.092ZM131.298 505.195L131.673 420.842C131.589 420.758 135.797 420.675 144.294 420.592C152.876 420.425 161.457 420.3 170.038 420.217L182.91 420.092L183.66 443.086H156.041L155.667 453.958L171.788 454.333V472.079L157.041 471.704L156.041 481.826L185.659 483.576V504.446L131.298 505.195Z"
            fill="white"/>
    <path
            d="M217.253 494.698L216.503 431.964L228.75 416.593L272.239 417.967L284.486 431.589L285.861 490.199L274.364 506.57L230.75 506.195L217.253 494.698ZM244.371 443.836L240.622 448.335L240.872 478.327L245.121 481.826H258.368L261.867 476.953L261.492 448.335L257.618 444.211L244.371 443.836ZM291.569 421.217L318.063 419.717L319.062 440.712L339.682 460.582L337.308 421.217L365.176 420.467L366.55 505.57L339.307 506.57L337.558 488.825L316.688 464.081L318.063 507.945H292.569L291.569 421.217ZM373.22 505.195L373.594 420.842C373.511 420.758 377.718 420.675 386.216 420.592C394.797 420.425 403.379 420.3 411.96 420.217L424.832 420.092L425.581 443.086H397.963L397.588 453.958L413.709 454.333V472.079L398.963 471.704L397.963 481.826L427.581 483.576V504.446L373.22 505.195Z"
            fill="white"/>
    <path
            d="M15.4508 540.478C13.6582 540.478 11.9835 540.148 10.4267 539.487C8.86996 538.827 7.50191 537.919 6.32255 536.763C5.14319 535.584 4.2115 534.227 3.52747 532.694C2.86703 531.161 2.53681 529.51 2.53681 527.741C2.53681 525.972 2.86703 524.321 3.52747 522.788C4.2115 521.255 5.14319 519.91 6.32255 518.754C7.50191 517.575 8.86996 516.655 10.4267 515.995C11.9835 515.334 13.6582 515.004 15.4508 515.004C16.5594 515.004 17.6326 515.122 18.6704 515.358C19.7083 515.594 20.6635 515.947 21.5363 516.419C21.8901 516.608 22.1495 516.867 22.3146 517.198C22.5033 517.504 22.5977 517.823 22.5977 518.153C22.5977 518.719 22.409 519.226 22.0316 519.674C21.6542 520.122 21.1707 520.346 20.581 520.346C20.3923 520.346 20.1918 520.323 19.9795 520.276C19.7908 520.229 19.6021 520.158 19.4134 520.063C18.8237 519.804 18.1987 519.603 17.5382 519.462C16.8778 519.32 16.182 519.25 15.4508 519.25C13.9176 519.25 12.5142 519.639 11.2405 520.417C9.99035 521.172 8.9879 522.198 8.23311 523.495C7.50191 524.769 7.13631 526.184 7.13631 527.741C7.13631 529.274 7.50191 530.689 8.23311 531.987C8.9879 533.284 9.99035 534.322 11.2405 535.1C12.5142 535.855 13.9176 536.232 15.4508 536.232C16.1584 536.232 16.9368 536.162 17.7859 536.02C18.635 535.879 19.3309 535.69 19.8734 535.454L19.5549 536.515V530.465L20.1564 530.996H16.2292C15.6159 530.996 15.097 530.796 14.6724 530.395C14.2714 529.994 14.0709 529.486 14.0709 528.873C14.0709 528.26 14.2714 527.753 14.6724 527.352C15.097 526.951 15.6159 526.75 16.2292 526.75H22.0316C22.6449 526.75 23.152 526.963 23.553 527.387C23.9539 527.788 24.1544 528.295 24.1544 528.909V536.409C24.1544 536.881 24.0365 537.27 23.8006 537.577C23.5883 537.883 23.3407 538.131 23.0576 538.32C21.9726 538.98 20.7815 539.511 19.4842 539.912C18.2105 540.289 16.866 540.478 15.4508 540.478ZM56.6088 520.913L48.9666 538.886C48.8015 539.334 48.542 539.688 48.1882 539.947C47.858 540.183 47.4924 540.301 47.0914 540.301C46.4545 540.301 45.9828 540.124 45.6762 539.77C45.3695 539.417 45.2162 538.98 45.2162 538.461C45.2162 538.249 45.2516 538.025 45.3223 537.789L54.1321 516.631C54.3208 516.16 54.6039 515.794 54.9813 515.535C55.3823 515.275 55.8068 515.169 56.255 515.216C56.6796 515.216 57.0687 515.346 57.4226 515.605C57.8 515.841 58.0712 516.183 58.2363 516.631L66.94 537.365C67.0579 537.671 67.1169 537.954 67.1169 538.214C67.1169 538.851 66.9046 539.358 66.48 539.735C66.079 540.112 65.6309 540.301 65.1356 540.301C64.711 540.301 64.3218 540.171 63.968 539.912C63.6378 539.653 63.3783 539.299 63.1896 538.851L55.5828 521.125L56.6088 520.913ZM50.0634 534.569L52.0093 530.501H61.5621L62.2343 534.569H50.0634ZM91.4472 515.322C91.7774 515.322 92.1194 515.417 92.4733 515.605C92.8507 515.771 93.1337 515.995 93.3224 516.278L101.92 529.51L100.151 529.439L108.961 516.278C109.409 515.641 109.987 515.322 110.694 515.322C111.26 515.322 111.768 515.523 112.216 515.924C112.664 516.325 112.888 516.844 112.888 517.481V537.966C112.888 538.579 112.687 539.098 112.286 539.523C111.885 539.924 111.355 540.124 110.694 540.124C110.034 540.124 109.491 539.924 109.067 539.523C108.666 539.098 108.465 538.579 108.465 537.966V521.302L109.845 521.62L102.628 532.624C102.415 532.883 102.144 533.107 101.814 533.296C101.507 533.484 101.189 533.567 100.858 533.543C100.552 533.567 100.233 533.484 99.9032 533.296C99.5966 533.107 99.3371 532.883 99.1248 532.624L92.3671 521.939L93.287 520.063V537.966C93.287 538.579 93.0983 539.098 92.7209 539.523C92.3435 539.924 91.8482 540.124 91.2349 540.124C90.6453 540.124 90.1617 539.924 89.7843 539.523C89.4069 539.098 89.2182 538.579 89.2182 537.966V517.481C89.2182 516.891 89.4305 516.384 89.8551 515.959C90.3032 515.535 90.8339 515.322 91.4472 515.322ZM139.471 515.358H151.323C151.937 515.358 152.444 515.558 152.845 515.959C153.269 516.337 153.482 516.832 153.482 517.445C153.482 518.035 153.269 518.518 152.845 518.896C152.444 519.25 151.937 519.427 151.323 519.427H141.417L141.735 518.825V525.724L141.452 525.441H149.731C150.344 525.441 150.852 525.642 151.253 526.043C151.677 526.42 151.889 526.915 151.889 527.529C151.889 528.118 151.677 528.602 151.253 528.979C150.852 529.333 150.344 529.51 149.731 529.51H141.558L141.735 529.227V536.374L141.452 536.055H151.323C151.937 536.055 152.444 536.268 152.845 536.692C153.269 537.093 153.482 537.565 153.482 538.108C153.482 538.697 153.269 539.181 152.845 539.558C152.444 539.936 151.937 540.124 151.323 540.124H139.471C138.857 540.124 138.339 539.924 137.914 539.523C137.513 539.098 137.313 538.579 137.313 537.966V517.516C137.313 516.903 137.513 516.396 137.914 515.995C138.339 515.57 138.857 515.358 139.471 515.358ZM213.648 540.478C211.997 540.478 210.511 540.278 209.19 539.877C207.869 539.452 206.607 538.721 205.404 537.683C205.098 537.424 204.862 537.129 204.697 536.798C204.531 536.468 204.449 536.138 204.449 535.808C204.449 535.265 204.638 534.794 205.015 534.393C205.416 533.968 205.911 533.756 206.501 533.756C206.949 533.756 207.35 533.897 207.704 534.18C208.6 534.912 209.485 535.466 210.357 535.843C211.254 536.221 212.351 536.409 213.648 536.409C214.521 536.409 215.323 536.28 216.054 536.02C216.785 535.737 217.375 535.371 217.823 534.923C218.271 534.452 218.495 533.921 218.495 533.331C218.495 532.624 218.283 532.022 217.858 531.527C217.434 531.031 216.785 530.619 215.912 530.288C215.039 529.935 213.931 529.663 212.586 529.475C211.313 529.286 210.192 529.003 209.225 528.626C208.258 528.225 207.444 527.729 206.784 527.14C206.147 526.526 205.664 525.819 205.333 525.017C205.003 524.191 204.838 523.271 204.838 522.257C204.838 520.724 205.227 519.415 206.006 518.33C206.808 517.245 207.881 516.419 209.225 515.853C210.57 515.287 212.056 515.004 213.683 515.004C215.216 515.004 216.632 515.24 217.929 515.712C219.25 516.16 220.323 516.738 221.149 517.445C221.833 517.988 222.175 518.613 222.175 519.32C222.175 519.839 221.974 520.311 221.573 520.736C221.172 521.16 220.7 521.372 220.158 521.372C219.804 521.372 219.486 521.266 219.203 521.054C218.825 520.724 218.318 520.417 217.681 520.134C217.044 519.828 216.372 519.58 215.665 519.391C214.957 519.179 214.296 519.073 213.683 519.073C212.669 519.073 211.808 519.202 211.1 519.462C210.416 519.721 209.897 520.075 209.544 520.523C209.19 520.971 209.013 521.49 209.013 522.08C209.013 522.788 209.213 523.377 209.614 523.849C210.039 524.297 210.64 524.663 211.419 524.946C212.197 525.205 213.129 525.441 214.214 525.654C215.629 525.913 216.867 526.22 217.929 526.573C219.014 526.927 219.91 527.387 220.618 527.953C221.325 528.496 221.856 529.192 222.21 530.041C222.564 530.866 222.741 531.881 222.741 533.084C222.741 534.617 222.316 535.938 221.467 537.046C220.618 538.155 219.497 539.004 218.106 539.594C216.738 540.183 215.252 540.478 213.648 540.478ZM254.289 540.124C253.629 540.124 253.086 539.924 252.661 539.523C252.237 539.098 252.025 538.579 252.025 537.966V517.445H256.624V537.966C256.624 538.579 256.4 539.098 255.952 539.523C255.527 539.924 254.973 540.124 254.289 540.124ZM246.47 519.427C245.857 519.427 245.338 519.238 244.913 518.86C244.512 518.483 244.312 517.988 244.312 517.374C244.312 516.761 244.512 516.278 244.913 515.924C245.338 515.546 245.857 515.358 246.47 515.358H262.179C262.792 515.358 263.299 515.546 263.7 515.924C264.125 516.301 264.337 516.797 264.337 517.41C264.337 518.023 264.125 518.518 263.7 518.896C263.299 519.25 262.792 519.427 262.179 519.427H246.47ZM304.741 515.322C305.354 515.322 305.85 515.535 306.227 515.959C306.604 516.36 306.793 516.867 306.793 517.481V530.288C306.793 532.246 306.369 533.98 305.519 535.489C304.694 536.999 303.55 538.178 302.088 539.027C300.625 539.877 298.927 540.301 296.993 540.301C295.059 540.301 293.348 539.877 291.862 539.027C290.4 538.178 289.244 536.999 288.395 535.489C287.57 533.98 287.157 532.246 287.157 530.288V517.481C287.157 516.867 287.369 516.36 287.794 515.959C288.218 515.535 288.761 515.322 289.421 515.322C289.964 515.322 290.447 515.535 290.872 515.959C291.32 516.36 291.544 516.867 291.544 517.481V530.288C291.544 531.468 291.792 532.494 292.287 533.367C292.806 534.216 293.478 534.876 294.304 535.348C295.153 535.82 296.049 536.055 296.993 536.055C298.007 536.055 298.95 535.82 299.823 535.348C300.696 534.876 301.403 534.216 301.946 533.367C302.489 532.494 302.76 531.468 302.76 530.288V517.481C302.76 516.867 302.937 516.36 303.29 515.959C303.644 515.535 304.128 515.322 304.741 515.322ZM341.823 515.358C343.521 515.358 345.031 515.676 346.352 516.313C347.672 516.95 348.781 517.846 349.677 519.002C350.597 520.134 351.281 521.455 351.729 522.965C352.201 524.451 352.437 526.043 352.437 527.741C352.437 530.029 352.024 532.116 351.199 534.003C350.373 535.867 349.17 537.353 347.59 538.461C346.033 539.57 344.111 540.124 341.823 540.124H333.367C332.754 540.124 332.235 539.924 331.81 539.523C331.409 539.098 331.209 538.579 331.209 537.966V517.516C331.209 516.903 331.409 516.396 331.81 515.995C332.235 515.57 332.754 515.358 333.367 515.358H341.823ZM341.469 536.055C342.955 536.055 344.17 535.678 345.113 534.923C346.057 534.145 346.741 533.131 347.165 531.881C347.614 530.607 347.838 529.227 347.838 527.741C347.838 526.632 347.708 525.583 347.448 524.592C347.213 523.578 346.835 522.693 346.316 521.939C345.797 521.16 345.137 520.547 344.335 520.099C343.533 519.651 342.578 519.427 341.469 519.427H335.277L335.631 519.108V536.445L335.419 536.055H341.469ZM380.029 537.966C380.029 538.579 379.804 539.098 379.356 539.523C378.908 539.924 378.389 540.124 377.8 540.124C377.139 540.124 376.608 539.924 376.207 539.523C375.806 539.098 375.606 538.579 375.606 537.966V517.516C375.606 516.903 375.818 516.396 376.243 515.995C376.667 515.57 377.21 515.358 377.87 515.358C378.436 515.358 378.932 515.57 379.356 515.995C379.804 516.396 380.029 516.903 380.029 517.516V537.966ZM427.24 527.741C427.24 529.51 426.945 531.161 426.356 532.694C425.766 534.227 424.929 535.584 423.844 536.763C422.782 537.919 421.509 538.827 420.023 539.487C418.56 540.148 416.956 540.478 415.211 540.478C413.465 540.478 411.861 540.148 410.399 539.487C408.937 538.827 407.663 537.919 406.578 536.763C405.516 535.584 404.691 534.227 404.101 532.694C403.512 531.161 403.217 529.51 403.217 527.741C403.217 525.972 403.512 524.321 404.101 522.788C404.691 521.255 405.516 519.91 406.578 518.754C407.663 517.575 408.937 516.655 410.399 515.995C411.861 515.334 413.465 515.004 415.211 515.004C416.956 515.004 418.56 515.334 420.023 515.995C421.509 516.655 422.782 517.575 423.844 518.754C424.929 519.91 425.766 521.255 426.356 522.788C426.945 524.321 427.24 525.972 427.24 527.741ZM422.641 527.741C422.641 526.161 422.322 524.734 421.685 523.46C421.049 522.163 420.176 521.137 419.067 520.382C417.959 519.627 416.673 519.25 415.211 519.25C413.748 519.25 412.463 519.627 411.354 520.382C410.246 521.137 409.373 522.151 408.736 523.425C408.123 524.698 407.816 526.137 407.816 527.741C407.816 529.321 408.123 530.76 408.736 532.057C409.373 533.331 410.246 534.345 411.354 535.1C412.463 535.855 413.748 536.232 415.211 536.232C416.673 536.232 417.959 535.855 419.067 535.1C420.176 534.345 421.049 533.331 421.685 532.057C422.322 530.76 422.641 529.321 422.641 527.741Z"
            fill="white"/>
    <defs>
        <linearGradient id="paint0_linear_28_403" x1="244.827" y1="-269.053" x2="309.331" y2="467.768"
                        gradientUnits="userSpaceOnUse">
            <stop stop-color="#FFC700"/>
            <stop offset="1" stop-color="#FF0440"/>
            <stop offset="1" stop-color="#FF0440"/>
        </linearGradient>
    </defs>
</svg>