<svg viewBox="0 0 195 50" fill="none" xmlns="http://www.w3.org/2000/svg">
    <path d="M0.86905 3.09977L20.8607 2.96882L20.7298 12.2226L15.9719 12.0917L16.1029 32.7818L7.06735 33.0436L7.46019 12.5718L1.3492 12.7028L0.86905 3.09977ZM22.2173 2.70693H30.86L30.3798 17.3297H35.4869L35.7051 3.31802L43.9986 3.44897L43.8677 32.6945H35.6178L35.3559 24.27H30.2489V32.6945H22.0863L22.2173 2.70693ZM46.4689 32.4326L46.5999 2.96882C46.5708 2.93972 48.0403 2.91062 51.0085 2.88152C54.0058 2.82332 57.0031 2.77967 60.0004 2.75057L64.4964 2.70693L64.7583 10.7385H55.1116L54.9807 14.5361L60.6115 14.667V20.8653L55.4608 20.7344L55.1116 24.27L65.4567 24.8811V32.1707L46.4689 32.4326Z"
          fill="#434343"/>
    <path d="M76.4917 28.766L76.2298 6.85367L80.5075 1.48472L95.6977 1.96487L99.9754 6.72272L100.456 27.1946L96.4398 32.9127L81.2059 32.7818L76.4917 28.766ZM85.9638 11.0004L84.6543 12.5718L84.7416 23.0478L86.2257 24.27H90.8526L92.0748 22.5677L91.9438 12.5718L90.5907 11.1314L85.9638 11.0004ZM102.449 3.09977L111.703 2.57597L112.052 9.90917L119.255 16.8495L118.425 3.09977L128.159 2.83787L128.639 32.5635L119.124 32.9127L118.513 26.7144L111.223 18.0717L111.703 33.3928H102.799L102.449 3.09977ZM130.969 32.4326L131.1 2.96882C131.071 2.93972 132.54 2.91062 135.509 2.88152C138.506 2.82332 141.503 2.77967 144.5 2.75057L148.996 2.70693L149.258 10.7385H139.612L139.481 14.5361L145.112 14.667V20.8653L139.961 20.7344L139.612 24.27L149.957 24.8811V32.1707L130.969 32.4326Z"
          fill="#434343"/>
    <path d="M5.57543 46.4819C5.00303 46.4819 4.46829 46.3764 3.97121 46.1655C3.47412 45.9547 3.03729 45.6647 2.66071 45.2956C2.28413 44.9191 1.98664 44.486 1.76822 43.9964C1.55734 43.5069 1.45189 42.9797 1.45189 42.4148C1.45189 41.85 1.55734 41.3227 1.76822 40.8332C1.98664 40.3436 2.28413 39.9143 2.66071 39.5453C3.03729 39.1687 3.47412 38.875 3.97121 38.6641C4.46829 38.4532 5.00303 38.3478 5.57543 38.3478C5.92942 38.3478 6.2721 38.3854 6.60349 38.4607C6.93488 38.5361 7.23991 38.649 7.51858 38.7997C7.63155 38.8599 7.7144 38.9428 7.76712 39.0482C7.82737 39.1461 7.8575 39.2478 7.8575 39.3532C7.8575 39.534 7.79725 39.6959 7.67674 39.839C7.55624 39.9821 7.40184 40.0537 7.21355 40.0537C7.1533 40.0537 7.08928 40.0461 7.0215 40.0311C6.96124 40.016 6.90099 39.9934 6.84074 39.9633C6.65245 39.8804 6.45286 39.8164 6.24198 39.7712C6.03109 39.726 5.80891 39.7035 5.57543 39.7035C5.08588 39.7035 4.63775 39.8277 4.23105 40.0763C3.83187 40.3173 3.51178 40.6449 3.27077 41.0591C3.03729 41.4658 2.92055 41.9177 2.92055 42.4148C2.92055 42.9044 3.03729 43.3563 3.27077 43.7705C3.51178 44.1847 3.83187 44.5161 4.23105 44.7647C4.63775 45.0057 5.08588 45.1262 5.57543 45.1262C5.80138 45.1262 6.04992 45.1036 6.32106 45.0584C6.5922 45.0132 6.81438 44.953 6.9876 44.8776L6.88593 45.2166V43.2847L7.07798 43.4542H5.82397C5.62815 43.4542 5.46246 43.3902 5.32689 43.2621C5.19885 43.1341 5.13484 42.9722 5.13484 42.7763C5.13484 42.5805 5.19885 42.4186 5.32689 42.2905C5.46246 42.1625 5.62815 42.0985 5.82397 42.0985H7.67674C7.87256 42.0985 8.03449 42.1663 8.16253 42.3018C8.29057 42.4299 8.35458 42.5918 8.35458 42.7876V45.1827C8.35458 45.3333 8.31693 45.4576 8.24161 45.5555C8.17383 45.6534 8.09474 45.7325 8.00437 45.7927C7.65791 46.0036 7.27757 46.1731 6.86333 46.3011C6.45663 46.4216 6.02733 46.4819 5.57543 46.4819ZM18.7175 40.2344L16.2773 45.9735C16.2246 46.1166 16.1417 46.2296 16.0288 46.3124C15.9233 46.3877 15.8066 46.4254 15.6785 46.4254C15.4752 46.4254 15.3246 46.3689 15.2266 46.2559C15.1287 46.1429 15.0798 46.0036 15.0798 45.8379C15.0798 45.7701 15.0911 45.6986 15.1137 45.6233L17.9267 38.8674C17.987 38.7168 18.0773 38.6001 18.1979 38.5172C18.3259 38.4344 18.4615 38.4005 18.6046 38.4156C18.7401 38.4156 18.8644 38.457 18.9774 38.5398C19.0979 38.6151 19.1845 38.7243 19.2372 38.8674L22.0164 45.4877C22.054 45.5856 22.0729 45.676 22.0729 45.7588C22.0729 45.9622 22.0051 46.1241 21.8695 46.2446C21.7415 46.3651 21.5984 46.4254 21.4402 46.4254C21.3046 46.4254 21.1804 46.384 21.0674 46.3011C20.9619 46.2183 20.8791 46.1053 20.8188 45.9622L18.3899 40.3022L18.7175 40.2344ZM16.6275 44.5952L17.2489 43.296H20.2992L20.5138 44.5952H16.6275ZM29.8417 38.4494C29.9472 38.4494 30.0564 38.4796 30.1694 38.5398C30.2899 38.5925 30.3802 38.6641 30.4405 38.7545L33.1858 42.9797L32.6209 42.9571L35.4339 38.7545C35.577 38.5511 35.7615 38.4494 35.9875 38.4494C36.1683 38.4494 36.3302 38.5135 36.4733 38.6415C36.6164 38.7695 36.6879 38.9352 36.6879 39.1386V45.6798C36.6879 45.8756 36.6239 46.0413 36.4959 46.1768C36.3678 46.3049 36.1984 46.3689 35.9875 46.3689C35.7766 46.3689 35.6034 46.3049 35.4678 46.1768C35.3398 46.0413 35.2758 45.8756 35.2758 45.6798V40.3587L35.7164 40.4604L33.4117 43.9739C33.3439 44.0567 33.2573 44.1283 33.1519 44.1885C33.0539 44.2488 32.9523 44.2751 32.8468 44.2676C32.7489 44.2751 32.6472 44.2488 32.5418 44.1885C32.4439 44.1283 32.361 44.0567 32.2933 43.9739L30.1355 40.5621L30.4292 39.9633V45.6798C30.4292 45.8756 30.3689 46.0413 30.2484 46.1768C30.1279 46.3049 29.9698 46.3689 29.7739 46.3689C29.5857 46.3689 29.4313 46.3049 29.3108 46.1768C29.1902 46.0413 29.13 45.8756 29.13 45.6798V39.1386C29.13 38.9503 29.1978 38.7884 29.3333 38.6528C29.4764 38.5172 29.6459 38.4494 29.8417 38.4494ZM45.176 38.4607H48.9607C49.1565 38.4607 49.3184 38.5248 49.4465 38.6528C49.582 38.7733 49.6498 38.9315 49.6498 39.1273C49.6498 39.3156 49.582 39.47 49.4465 39.5905C49.3184 39.7035 49.1565 39.7599 48.9607 39.7599H45.7974L45.8991 39.5679V41.7709L45.8087 41.6805H48.4523C48.6481 41.6805 48.81 41.7445 48.9381 41.8725C49.0736 41.9931 49.1414 42.1512 49.1414 42.347C49.1414 42.5353 49.0736 42.6897 48.9381 42.8102C48.81 42.9232 48.6481 42.9797 48.4523 42.9797H45.8426L45.8991 42.8893V45.1714L45.8087 45.0697H48.9607C49.1565 45.0697 49.3184 45.1375 49.4465 45.2731C49.582 45.4011 49.6498 45.5517 49.6498 45.7249C49.6498 45.9132 49.582 46.0676 49.4465 46.1881C49.3184 46.3086 49.1565 46.3689 48.9607 46.3689H45.176C44.9802 46.3689 44.8145 46.3049 44.679 46.1768C44.5509 46.0413 44.4869 45.8756 44.4869 45.6798V39.1499C44.4869 38.9541 44.5509 38.7921 44.679 38.6641C44.8145 38.5285 44.9802 38.4607 45.176 38.4607ZM68.8614 46.4819C68.3342 46.4819 67.8597 46.4179 67.4379 46.2898C67.0162 46.1542 66.6132 45.9208 66.2291 45.5894C66.1312 45.5065 66.0559 45.4124 66.0032 45.3069C65.9505 45.2015 65.9241 45.0961 65.9241 44.9906C65.9241 44.8174 65.9844 44.6668 66.1049 44.5387C66.2329 44.4032 66.3911 44.3354 66.5793 44.3354C66.7224 44.3354 66.8505 44.3806 66.9635 44.4709C67.2497 44.7044 67.5321 44.8814 67.8108 45.0019C68.097 45.1224 68.4472 45.1827 68.8614 45.1827C69.1401 45.1827 69.3962 45.1412 69.6296 45.0584C69.8631 44.968 70.0514 44.8513 70.1945 44.7082C70.3376 44.5576 70.4092 44.3881 70.4092 44.1998C70.4092 43.9739 70.3414 43.7818 70.2058 43.6236C70.0702 43.4655 69.8631 43.3337 69.5844 43.2282C69.3058 43.1153 68.9518 43.0286 68.5225 42.9684C68.1158 42.9081 67.758 42.8178 67.4492 42.6973C67.1405 42.5692 66.8806 42.4111 66.6697 42.2228C66.4664 42.0269 66.312 41.801 66.2065 41.5449C66.1011 41.2813 66.0484 40.9876 66.0484 40.6637C66.0484 40.1742 66.1726 39.7562 66.4212 39.4097C66.6773 39.0633 67.0199 38.7997 67.4492 38.6189C67.8785 38.4381 68.353 38.3478 68.8727 38.3478C69.3623 38.3478 69.8142 38.4231 70.2284 38.5737C70.6502 38.7168 70.9929 38.9013 71.2565 39.1273C71.4749 39.3005 71.5841 39.5001 71.5841 39.726C71.5841 39.8917 71.5201 40.0424 71.392 40.1779C71.264 40.3135 71.1134 40.3813 70.9401 40.3813C70.8272 40.3813 70.7255 40.3474 70.6351 40.2796C70.5146 40.1742 70.3527 40.0763 70.1493 39.9859C69.946 39.888 69.7313 39.8089 69.5054 39.7486C69.2794 39.6809 69.0685 39.647 68.8727 39.647C68.5489 39.647 68.274 39.6884 68.048 39.7712C67.8296 39.8541 67.6639 39.9671 67.5509 40.1102C67.4379 40.2533 67.3815 40.419 67.3815 40.6072C67.3815 40.8332 67.4455 41.0215 67.5735 41.1721C67.7091 41.3152 67.9011 41.4319 68.1497 41.5223C68.3982 41.6052 68.6957 41.6805 69.0422 41.7483C69.4941 41.8311 69.8895 41.929 70.2284 42.042C70.5748 42.155 70.861 42.3018 71.087 42.4826C71.3129 42.6558 71.4824 42.878 71.5954 43.1491C71.7084 43.4128 71.7648 43.7366 71.7648 44.1207C71.7648 44.6103 71.6293 45.032 71.3581 45.386C71.087 45.74 70.7292 46.0111 70.2849 46.1994C69.8481 46.3877 69.3736 46.4819 68.8614 46.4819ZM81.8385 46.3689C81.6276 46.3689 81.4544 46.3049 81.3188 46.1768C81.1832 46.0413 81.1154 45.8756 81.1154 45.6798V39.1273H82.5841V45.6798C82.5841 45.8756 82.5125 46.0413 82.3694 46.1768C82.2339 46.3049 82.0569 46.3689 81.8385 46.3689ZM79.3418 39.7599C79.1459 39.7599 78.9802 39.6997 78.8447 39.5792C78.7166 39.4587 78.6526 39.3005 78.6526 39.1047C78.6526 38.9089 78.7166 38.7545 78.8447 38.6415C78.9802 38.521 79.1459 38.4607 79.3418 38.4607H84.3578C84.5536 38.4607 84.7155 38.521 84.8436 38.6415C84.9791 38.762 85.0469 38.9202 85.0469 39.116C85.0469 39.3118 84.9791 39.47 84.8436 39.5905C84.7155 39.7035 84.5536 39.7599 84.3578 39.7599H79.3418ZM97.9482 38.4494C98.1441 38.4494 98.3022 38.5172 98.4227 38.6528C98.5432 38.7808 98.6035 38.9428 98.6035 39.1386V43.2282C98.6035 43.8533 98.4679 44.4069 98.1968 44.8889C97.9332 45.371 97.5679 45.7475 97.1009 46.0187C96.634 46.2898 96.0917 46.4254 95.4741 46.4254C94.8565 46.4254 94.3105 46.2898 93.836 46.0187C93.369 45.7475 93 45.371 92.7289 44.8889C92.4653 44.4069 92.3335 43.8533 92.3335 43.2282V39.1386C92.3335 38.9428 92.4012 38.7808 92.5368 38.6528C92.6724 38.5172 92.8456 38.4494 93.0565 38.4494C93.2297 38.4494 93.3841 38.5172 93.5197 38.6528C93.6628 38.7808 93.7343 38.9428 93.7343 39.1386V43.2282C93.7343 43.6048 93.8134 43.9324 93.9716 44.2111C94.1373 44.4822 94.3519 44.6931 94.6155 44.8438C94.8867 44.9944 95.1729 45.0697 95.4741 45.0697C95.798 45.0697 96.0992 44.9944 96.3779 44.8438C96.6566 44.6931 96.8825 44.4822 97.0558 44.2111C97.229 43.9324 97.3156 43.6048 97.3156 43.2282V39.1386C97.3156 38.9428 97.3721 38.7808 97.4851 38.6528C97.598 38.5172 97.7524 38.4494 97.9482 38.4494ZM109.789 38.4607C110.331 38.4607 110.813 38.5624 111.235 38.7658C111.657 38.9691 112.011 39.2553 112.297 39.6244C112.591 39.9859 112.809 40.4077 112.952 40.8897C113.103 41.3642 113.178 41.8725 113.178 42.4148C113.178 43.1454 113.046 43.8119 112.783 44.4145C112.519 45.0094 112.135 45.4839 111.63 45.8379C111.133 46.1919 110.519 46.3689 109.789 46.3689H107.089C106.893 46.3689 106.727 46.3049 106.592 46.1768C106.464 46.0413 106.4 45.8756 106.4 45.6798V39.1499C106.4 38.9541 106.464 38.7921 106.592 38.6641C106.727 38.5285 106.893 38.4607 107.089 38.4607H109.789ZM109.676 45.0697C110.15 45.0697 110.538 44.9492 110.839 44.7082C111.141 44.4596 111.359 44.1358 111.495 43.7366C111.638 43.3299 111.709 42.8893 111.709 42.4148C111.709 42.0608 111.668 41.7257 111.585 41.4094C111.51 41.0855 111.389 40.8031 111.224 40.5621C111.058 40.3135 110.847 40.1177 110.591 39.9746C110.335 39.8315 110.03 39.7599 109.676 39.7599H107.699L107.812 39.6583V45.194L107.744 45.0697H109.676ZM121.988 45.6798C121.988 45.8756 121.917 46.0413 121.773 46.1768C121.63 46.3049 121.465 46.3689 121.276 46.3689C121.066 46.3689 120.896 46.3049 120.768 46.1768C120.64 46.0413 120.576 45.8756 120.576 45.6798V39.1499C120.576 38.9541 120.644 38.7921 120.779 38.6641C120.915 38.5285 121.088 38.4607 121.299 38.4607C121.48 38.4607 121.638 38.5285 121.773 38.6641C121.917 38.7921 121.988 38.9541 121.988 39.1499V45.6798ZM137.063 42.4148C137.063 42.9797 136.969 43.5069 136.781 43.9964C136.593 44.486 136.325 44.9191 135.979 45.2956C135.64 45.6647 135.233 45.9547 134.759 46.1655C134.292 46.3764 133.779 46.4819 133.222 46.4819C132.665 46.4819 132.153 46.3764 131.686 46.1655C131.219 45.9547 130.812 45.6647 130.466 45.2956C130.127 44.9191 129.863 44.486 129.675 43.9964C129.486 43.5069 129.392 42.9797 129.392 42.4148C129.392 41.85 129.486 41.3227 129.675 40.8332C129.863 40.3436 130.127 39.9143 130.466 39.5453C130.812 39.1687 131.219 38.875 131.686 38.6641C132.153 38.4532 132.665 38.3478 133.222 38.3478C133.779 38.3478 134.292 38.4532 134.759 38.6641C135.233 38.875 135.64 39.1687 135.979 39.5453C136.325 39.9143 136.593 40.3436 136.781 40.8332C136.969 41.3227 137.063 41.85 137.063 42.4148ZM135.595 42.4148C135.595 41.9102 135.493 41.4545 135.29 41.0478C135.086 40.6336 134.808 40.306 134.454 40.065C134.1 39.824 133.689 39.7035 133.222 39.7035C132.755 39.7035 132.345 39.824 131.991 40.065C131.637 40.306 131.358 40.6298 131.155 41.0365C130.959 41.4432 130.861 41.9027 130.861 42.4148C130.861 42.9194 130.959 43.3789 131.155 43.7931C131.358 44.1998 131.637 44.5237 131.991 44.7647C132.345 45.0057 132.755 45.1262 133.222 45.1262C133.689 45.1262 134.1 45.0057 134.454 44.7647C134.808 44.5237 135.086 44.1998 135.29 43.7931C135.493 43.3789 135.595 42.9194 135.595 42.4148ZM147.003 46.4819C146.475 46.4819 146.001 46.4179 145.579 46.2898C145.157 46.1542 144.754 45.9208 144.37 45.5894C144.272 45.5065 144.197 45.4124 144.144 45.3069C144.092 45.2015 144.065 45.0961 144.065 44.9906C144.065 44.8174 144.125 44.6668 144.246 44.5387C144.374 44.4032 144.532 44.3354 144.72 44.3354C144.864 44.3354 144.992 44.3806 145.105 44.4709C145.391 44.7044 145.673 44.8814 145.952 45.0019C146.238 45.1224 146.588 45.1827 147.003 45.1827C147.281 45.1827 147.537 45.1412 147.771 45.0584C148.004 44.968 148.193 44.8513 148.336 44.7082C148.479 44.5576 148.55 44.3881 148.55 44.1998C148.55 43.9739 148.483 43.7818 148.347 43.6236C148.211 43.4655 148.004 43.3337 147.726 43.2282C147.447 43.1153 147.093 43.0286 146.664 42.9684C146.257 42.9081 145.899 42.8178 145.59 42.6973C145.282 42.5692 145.022 42.4111 144.811 42.2228C144.608 42.0269 144.453 41.801 144.348 41.5449C144.242 41.2813 144.19 40.9876 144.19 40.6637C144.19 40.1742 144.314 39.7562 144.562 39.4097C144.818 39.0633 145.161 38.7997 145.59 38.6189C146.02 38.4381 146.494 38.3478 147.014 38.3478C147.503 38.3478 147.955 38.4231 148.37 38.5737C148.791 38.7168 149.134 38.9013 149.398 39.1273C149.616 39.3005 149.725 39.5001 149.725 39.726C149.725 39.8917 149.661 40.0424 149.533 40.1779C149.405 40.3135 149.254 40.3813 149.081 40.3813C148.968 40.3813 148.867 40.3474 148.776 40.2796C148.656 40.1742 148.494 40.0763 148.29 39.9859C148.087 39.888 147.872 39.8089 147.647 39.7486C147.421 39.6809 147.21 39.647 147.014 39.647C146.69 39.647 146.415 39.6884 146.189 39.7712C145.971 39.8541 145.805 39.9671 145.692 40.1102C145.579 40.2533 145.523 40.419 145.523 40.6072C145.523 40.8332 145.587 41.0215 145.715 41.1721C145.85 41.3152 146.042 41.4319 146.291 41.5223C146.539 41.6052 146.837 41.6805 147.183 41.7483C147.635 41.8311 148.031 41.929 148.37 42.042C148.716 42.155 149.002 42.3018 149.228 42.4826C149.454 42.6558 149.624 42.878 149.737 43.1491C149.849 43.4128 149.906 43.7366 149.906 44.1207C149.906 44.6103 149.77 45.032 149.499 45.386C149.228 45.74 148.87 46.0111 148.426 46.1994C147.989 46.3877 147.515 46.4819 147.003 46.4819Z"
          fill="#434343"/>
    <path fill-rule="evenodd" clip-rule="evenodd"
          d="M195 1.8183H159.75V46.6881H168.735L171.537 22.1948L165.756 24.5528L167.783 12.4586L183.548 5.91716L188.023 45.1504L179.308 46.6881H195V1.8183Z"
          fill="url(#paint0_linear_26_17220)"/>
    <defs>
        <linearGradient id="paint0_linear_26_17220" x1="180.688" y1="-28.5884" x2="187.958" y2="54.461"
                        gradientUnits="userSpaceOnUse">
            <stop stop-color="#FFC700"/>
            <stop offset="1" stop-color="#FF0440"/>
            <stop offset="1" stop-color="#FF0440"/>
        </linearGradient>
    </defs>
</svg>